<?xml version="1.0" standalone="no"?>
<!DOCTYPE svg PUBLIC "-//W3C//DTD SVG 20010904//EN"
 "http://www.w3.org/TR/2001/REC-SVG-20010904/DTD/svg10.dtd">
<svg version="1.0" xmlns="http://www.w3.org/2000/svg"
 width="660.000000pt" height="660.000000pt" viewBox="0 0 660.000000 660.000000"
 preserveAspectRatio="xMidYMid meet">
<metadata>
Created by potrace 1.14, written by Peter Selinger 2001-2017
</metadata>
<g transform="translate(0.000000,660.000000) scale(0.100000,-0.100000)"
fill="#000000" stroke="none">
<path d="M736 6363 c-1 -2 -18 -5 -37 -7 -19 -3 -34 -5 -34 -6 0 -1 -7 -3 -16
-5 -49 -9 -197 -105 -199 -128 0 -4 -9 -17 -20 -29 -11 -12 -20 -28 -20 -35 0
-8 -5 -11 -12 -7 -6 4 -8 3 -5 -3 4 -6 0 -28 -9 -49 -15 -35 -20 -76 -28 -229
-1 -22 2 -46 7 -52 6 -9 5 -13 -3 -13 -10 0 -10 -3 -1 -14 7 -8 8 -17 3 -20
-5 -3 -6 -26 -2 -51 4 -24 4 -47 2 -50 -8 -7 -8 -135 -1 -135 6 0 2 -78 -6
-97 -2 -7 0 -13 6 -13 6 0 7 -5 3 -11 -9 -16 -11 -140 -1 -146 4 -2 2 -13 -3
-24 -8 -14 -7 -19 1 -19 8 0 8 -4 2 -12 -5 -7 -7 -24 -3 -38 4 -14 3 -36 0
-50 -4 -14 -5 -34 -3 -45 4 -19 4 -40 -1 -105 -1 -14 3 -31 8 -37 5 -9 4 -13
-4 -13 -9 0 -9 -4 -2 -13 6 -7 7 -18 2 -26 -4 -8 -5 -24 0 -35 4 -11 4 -32 0
-46 -4 -14 -5 -34 -3 -45 3 -11 4 -33 3 -50 -5 -94 -5 -135 0 -135 7 0 3 -77
-5 -97 -2 -7 0 -13 6 -13 6 0 7 -5 3 -11 -10 -17 -11 -50 -3 -81 4 -16 5 -28
1 -28 -8 0 -8 -58 0 -66 4 -3 3 -18 -1 -32 -5 -15 -6 -36 -4 -47 6 -34 8 -95
3 -95 -7 0 -5 -59 2 -66 4 -3 3 -18 -1 -32 -5 -15 -6 -36 -4 -47 6 -34 8 -95
3 -95 -5 0 -4 -58 0 -70 1 -3 1 -9 0 -15 -5 -26 -5 -165 0 -165 7 0 3 -77 -5
-97 -2 -7 0 -13 6 -13 6 0 7 -5 3 -11 -9 -16 -11 -140 -1 -146 4 -2 2 -13 -3
-24 -8 -14 -7 -19 1 -19 8 0 8 -4 2 -12 -5 -7 -7 -24 -3 -38 4 -14 3 -36 0
-50 -4 -14 -5 -34 -3 -45 4 -19 4 -40 -1 -105 -1 -14 3 -31 8 -37 5 -9 4 -13
-4 -13 -9 0 -9 -4 -2 -13 6 -7 7 -18 2 -26 -4 -8 -5 -24 0 -35 4 -11 4 -32 0
-46 -4 -14 -5 -34 -3 -45 3 -11 4 -33 3 -50 -5 -94 -5 -135 0 -135 7 0 3 -77
-5 -97 -2 -7 0 -13 6 -13 6 0 7 -5 3 -11 -10 -17 -11 -50 -3 -81 4 -16 5 -28
1 -28 -8 0 -8 -58 0 -66 4 -3 3 -18 -1 -32 -5 -15 -6 -36 -4 -47 6 -34 8 -95
3 -95 -7 0 -5 -59 2 -66 4 -3 3 -18 -1 -32 -5 -15 -6 -36 -4 -47 6 -34 8 -95
3 -95 -5 0 -4 -58 0 -70 1 -3 1 -9 0 -15 -5 -26 -5 -165 0 -165 7 0 3 -77 -5
-98 -2 -6 0 -12 6 -12 6 0 7 -5 3 -11 -9 -16 -11 -140 -1 -146 4 -2 2 -13 -3
-24 -8 -14 -7 -19 1 -19 8 0 8 -4 2 -12 -5 -7 -7 -24 -3 -38 4 -14 3 -36 0
-50 -4 -14 -5 -34 -3 -45 4 -19 4 -40 -1 -105 -1 -14 3 -31 8 -37 5 -9 4 -13
-4 -13 -9 0 -9 -4 -2 -13 6 -7 7 -18 2 -26 -4 -8 -5 -24 0 -35 4 -11 4 -32 0
-46 -4 -14 -5 -34 -4 -45 2 -11 6 -48 8 -82 4 -64 30 -148 53 -171 12 -13 17
-27 14 -44 0 -5 3 -7 8 -5 5 1 22 -11 39 -28 43 -43 60 -55 72 -55 5 0 10 -4
10 -10 0 -5 9 -10 19 -10 11 0 22 -4 25 -9 3 -4 20 -12 38 -16 18 -4 40 -10
48 -12 8 -3 131 -5 273 -5 179 -1 257 -4 257 -12 0 -8 2 -8 8 0 10 15 2624 15
2634 0 5 -8 8 -8 8 0 0 15 222 15 232 0 5 -8 8 -7 8 1 0 16 70 14 70 -1 0 -8
3 -8 8 0 10 15 224 15 234 0 5 -8 8 -7 8 1 0 16 70 14 70 -1 0 -8 3 -8 8 0 10
15 224 15 234 0 5 -8 8 -7 8 1 0 16 70 14 70 -1 0 -8 3 -8 8 0 10 15 224 15
234 0 5 -8 8 -7 8 1 0 16 70 14 70 -1 0 -8 3 -8 8 0 10 15 224 15 234 0 5 -8
8 -7 8 1 0 16 70 14 70 -1 0 -8 3 -8 8 0 10 15 224 15 234 0 6 -8 8 -8 8 0 0
7 35 11 103 11 101 0 217 25 217 45 0 5 4 7 9 3 5 -3 16 2 24 10 9 8 18 15 22
15 11 0 105 103 105 116 0 7 6 17 14 21 8 4 15 12 14 16 0 4 6 22 12 40 7 18
14 43 17 57 2 14 5 306 6 650 1 352 6 631 11 639 6 9 5 12 -1 8 -12 -8 -12
453 1 472 6 9 5 12 0 8 -13 -8 -12 773 0 792 6 9 5 12 -1 8 -12 -8 -12 453 1
472 6 9 5 12 0 8 -13 -8 -12 773 0 792 6 9 5 12 -1 8 -12 -8 -12 453 1 472 6
9 5 12 0 8 -6 -4 -10 158 -9 436 0 243 -2 447 -4 452 -3 6 -6 15 -6 20 -3 31
-29 106 -41 116 -8 6 -14 17 -14 23 0 30 -148 153 -192 160 -7 1 -17 4 -23 8
-5 3 -34 9 -63 12 -29 3 -56 7 -60 10 -5 3 -14 1 -21 -4 -8 -4 -25 -4 -40 0
-14 4 -36 3 -49 -1 -12 -5 -22 -4 -22 1 0 5 -13 5 -30 0 -16 -5 -32 -5 -35 -1
-4 8 -58 6 -82 -4 -7 -2 -13 0 -13 5 0 5 -13 5 -30 0 -16 -5 -32 -5 -35 -1 -2
5 -17 6 -32 4 -16 -2 -41 -3 -58 -3 -16 1 -37 1 -45 0 -29 -1 -55 0 -75 4 -11
2 -28 -1 -37 -6 -10 -5 -18 -5 -18 -1 0 8 -105 7 -127 -1 -7 -3 -13 -2 -13 2
0 10 -73 8 -89 -2 -6 -4 -11 -3 -11 2 0 5 -17 6 -39 2 -22 -4 -45 -4 -52 1 -7
4 -20 4 -28 0 -9 -4 -27 -5 -41 -1 -14 4 -35 3 -47 -1 -13 -5 -23 -5 -23 1 0
5 -12 5 -30 0 -16 -5 -32 -5 -35 -1 -4 8 -58 6 -82 -4 -7 -2 -13 0 -13 5 0 5
-13 5 -30 0 -16 -5 -32 -5 -35 -1 -2 5 -17 6 -32 4 -16 -2 -41 -3 -58 -3 -16
1 -37 1 -45 0 -29 -1 -55 0 -75 4 -11 2 -28 -1 -37 -6 -10 -5 -18 -5 -18 -1 0
8 -105 7 -127 -1 -7 -3 -13 -2 -13 2 0 10 -73 8 -89 -2 -6 -4 -11 -3 -11 2 0
5 -17 6 -39 2 -22 -4 -45 -4 -52 1 -7 4 -20 4 -28 0 -9 -4 -27 -5 -41 -1 -14
4 -35 3 -47 -1 -13 -5 -23 -5 -23 1 0 5 -12 5 -30 0 -16 -5 -32 -5 -35 -1 -4
8 -58 6 -82 -4 -7 -2 -13 0 -13 5 0 5 -13 5 -30 0 -16 -5 -32 -5 -35 -1 -2 5
-17 6 -32 4 -16 -2 -41 -3 -58 -3 -16 1 -37 1 -45 0 -29 -1 -55 0 -75 4 -11 2
-28 -1 -37 -6 -10 -5 -18 -5 -18 -1 0 8 -105 7 -127 -1 -7 -3 -13 -2 -13 2 0
10 -73 8 -89 -2 -6 -4 -11 -3 -11 2 0 5 -17 6 -39 2 -22 -4 -45 -4 -52 1 -7 4
-20 4 -28 0 -9 -4 -27 -5 -41 -1 -14 4 -35 3 -47 -1 -13 -5 -23 -5 -23 1 0 5
-12 5 -30 0 -16 -5 -32 -5 -35 -1 -4 8 -58 6 -82 -4 -7 -2 -13 0 -13 5 0 5
-13 5 -30 0 -16 -5 -32 -5 -35 -1 -2 5 -17 6 -32 4 -16 -2 -41 -3 -58 -3 -16
1 -37 1 -45 0 -29 -1 -55 0 -75 4 -11 2 -28 -1 -37 -6 -10 -5 -18 -5 -18 -1 0
8 -105 7 -127 -1 -7 -3 -13 -2 -13 2 0 10 -73 8 -89 -2 -6 -4 -11 -3 -11 2 0
5 -17 6 -39 2 -22 -4 -45 -4 -52 1 -7 4 -20 4 -28 0 -9 -4 -27 -5 -41 -1 -14
4 -35 3 -47 -1 -13 -5 -23 -5 -23 1 0 5 -12 5 -30 0 -16 -5 -32 -5 -35 -1 -4
8 -58 6 -82 -4 -7 -2 -13 0 -13 5 0 5 -13 5 -30 0 -16 -5 -32 -5 -35 -1 -2 5
-17 6 -32 4 -16 -2 -41 -3 -58 -3 -16 1 -37 1 -45 0 -29 -1 -55 0 -75 4 -11 2
-28 -1 -37 -6 -10 -5 -18 -5 -18 -1 0 8 -105 7 -127 -1 -7 -3 -13 -2 -13 2 0
10 -73 8 -89 -2 -6 -4 -11 -3 -11 2 0 5 -17 6 -39 2 -22 -4 -45 -4 -52 1 -7 4
-20 4 -28 0 -9 -4 -27 -5 -41 -1 -14 4 -35 3 -47 -1 -13 -5 -23 -5 -23 1 0 5
-12 5 -29 0 -16 -4 -32 -6 -35 -2 -6 5 -115 10 -120 5z"/>
</g>
</svg>
